<?xml version="1.0" encoding="utf-8"?>
<!-- Designed by Vexels.com - 2020 All Rights Reserved - https://vexels.com/terms-and-conditions/  -->
<svg version="1.1" id="Layer_1" xmlns="http://www.w3.org/2000/svg" xmlns:xlink="http://www.w3.org/1999/xlink" x="0px" y="0px"
	 viewBox="0 0 1200 1200" enable-background="new 0 0 1200 1200" xml:space="preserve">
<g>
	<path fill="#EF5A4A" d="M805.273,250.069c-12.596,0-25.335,0.884-38.126,2.621c0.174-0.172,0.364-0.314,0.538-0.487l95.008-94.961
		c6.127-6.126,8.447-14.778,6.203-23.139c-2.239-8.366-8.57-14.697-16.936-16.941L722.222,82.363
		c-22.264-5.96-44.781-4.371-65.507,4.41c-6.412-8.263-15.609-13.618-25.985-15.076c-10.609-1.501-21.104,1.234-29.637,7.66
		c-8.528,6.427-14.044,15.793-15.531,26.373l-26.974,190.588c-3.621-1.492-7.196-3.146-10.685-5.045
		c-49.531-26.955-102.497-41.204-153.177-41.204C204.644,250.069,50,447.146,50,689.385c0,114.469,42.633,224.632,120.052,310.202
		c74.232,82.06,170.341,129.118,263.682,129.118c58.283,0,115.584-18.746,166.268-54.305
		c50.675,35.558,107.976,54.305,166.263,54.305c93.341,0,189.449-47.059,263.682-129.118
		C1107.367,914.017,1150,803.854,1150,689.385C1150,447.146,995.356,250.069,805.273,250.069z M674.973,279.875
		c-7.689,3.513-15.326,7.289-22.877,11.398c-4.128,2.248-8.361,4.207-12.665,5.885l4.169-29.681
		C653.471,273.442,664.071,277.569,674.973,279.875z"/>
	<g>
		<path fill="#DE4C3C" d="M613.885,303.684c-2.605,0.337-5.218,0.576-7.834,0.719C608.667,304.261,611.28,304.021,613.885,303.684z"
			/>
		<polygon fill="#DE4C3C" points="582.566,303.125 582.572,303.126 582.566,303.125 		"/>
		<path fill="#DE4C3C" d="M598.515,304.54c-0.101-0.002-0.202,0.007-0.304,0.005C598.312,304.547,598.414,304.538,598.515,304.54z"
			/>
		<path fill="#DE4C3C" d="M1047.344,419.331c-35.717-53.244-83.812-99.782-142.913-124.633
			c-59.818-25.152-129.295-26.43-189.998-3.496c-35.75,13.507-69.644,35.281-107.822,36.97
			c-48.618,2.151-91.832-28.463-138.138-43.433c-9.154-2.959-18.465-5.261-27.87-6.977c21.35,92.29,126.658,130.676,215.748,103.949
			c73.175-24.392,156.106-43.905,224.403,9.757c136.593,107.323,180.498,307.334,112.201,458.562
			c-60.804,140.318-229.228,235.7-384.897,200.335c44.396,35.07,101.182,52.327,158.213,52.53
			c26.307,0.093,52.664-3.441,77.882-10.529c83.565-23.488,154.479-82.467,202.914-154.501
			C1149.37,785.713,1149.485,571.592,1047.344,419.331z"/>
		<polygon fill="#DE4C3C" points="844.914,140.531 715.905,105.925 799.099,128.242 		"/>
		<polygon fill="#DE4C3C" points="662.575,132.407 664.759,116.859 657.778,166.554 659.035,157.603 		"/>
		<path fill="#5B9633" d="M750.44,234.948l94.475-94.417l-45.815-12.289L761.818,165.5v0c-0.017,0.479-0.103,0.942-0.175,1.408
			c-0.043,0.277-0.065,0.56-0.126,0.832c-0.096,0.42-0.237,0.819-0.376,1.223c-0.103,0.303-0.2,0.608-0.326,0.9
			c-0.157,0.364-0.342,0.709-0.534,1.055c-0.17,0.308-0.346,0.612-0.541,0.904c-0.206,0.306-0.423,0.598-0.656,0.885
			c-0.242,0.298-0.5,0.583-0.771,0.858c-0.239,0.244-0.478,0.482-0.737,0.706c-0.323,0.278-0.669,0.528-1.022,0.771
			c-0.256,0.177-0.503,0.362-0.774,0.52c-0.425,0.248-0.88,0.45-1.338,0.646c-0.239,0.102-0.464,0.227-0.712,0.314
			c-0.724,0.256-1.478,0.459-2.266,0.578l-1.474,0.222l-28.596,28.58c-21.2,21.197-48.243,26.219-72.026,20.518l-1.968,14.011
			C674.835,262.354,719.054,266.33,750.44,234.948z"/>
		<path fill="#74AD4E" d="M721.394,205.901l28.596-28.58l-95.751,14.428l-4.871,34.67
			C673.151,232.12,700.194,227.098,721.394,205.901z"/>
		<path fill="#74AD4E" d="M715.905,105.925c-17.339-4.657-34.83-3.289-50.806,3.772c0.091,2.371-0.002,4.763-0.341,7.162
			l-2.184,15.548l-3.54,25.196l-1.258,8.951l90.056-13.57c6.646-1.029,12.872,3.583,13.873,10.243
			c0.116,0.767,0.139,1.525,0.112,2.273l37.281-37.258L715.905,105.925z"/>
		<path fill="#74AD4E" d="M582.572,303.126c5.183,0.846,10.409,1.323,15.639,1.419c0.101,0.002,0.202-0.007,0.304-0.005
			c2.512,0.039,5.025,0.001,7.535-0.136c2.617-0.143,5.23-0.382,7.834-0.719l26.721-190.222c0.581-4.126-0.481-8.227-2.987-11.553
			c-2.511-3.33-6.16-5.479-10.285-6.06c-4.13-0.586-8.232,0.481-11.562,2.987c-3.325,2.506-5.474,6.16-6.055,10.285l-27.15,194.003
			C582.569,303.125,582.57,303.126,582.572,303.126z"/>
		<path fill="#0C2A44" d="M805.273,250.069c-12.596,0-25.335,0.884-38.126,2.621c0.174-0.172,0.364-0.314,0.538-0.487l95.008-94.961
			c6.127-6.126,8.447-14.778,6.203-23.139c-2.239-8.366-8.57-14.697-16.936-16.941L722.222,82.363
			c-22.264-5.96-44.781-4.371-65.507,4.41c-6.412-8.263-15.609-13.618-25.985-15.076c-10.609-1.501-21.104,1.234-29.637,7.66
			c-8.528,6.427-14.044,15.793-15.531,26.373l-26.974,190.588c-3.621-1.492-7.196-3.146-10.685-5.045
			c-49.531-26.955-102.497-41.204-153.177-41.204C204.644,250.069,50,447.146,50,689.385c0,114.469,42.633,224.632,120.052,310.202
			c74.232,82.06,170.341,129.118,263.682,129.118c58.283,0,115.584-18.746,166.268-54.305
			c50.675,35.558,107.976,54.305,166.263,54.305c93.341,0,189.449-47.059,263.682-129.118
			C1107.367,914.017,1150,803.854,1150,689.385C1150,447.146,995.356,250.069,805.273,250.069z M649.367,226.419l4.871-34.67
			l95.751-14.428l1.474-0.222c0.788-0.118,1.542-0.321,2.266-0.578c0.248-0.088,0.473-0.212,0.712-0.314
			c0.458-0.197,0.912-0.399,1.338-0.646c0.271-0.158,0.518-0.342,0.774-0.52c0.353-0.244,0.699-0.494,1.022-0.771
			c0.26-0.224,0.498-0.462,0.737-0.706c0.27-0.275,0.528-0.559,0.771-0.858c0.233-0.286,0.45-0.578,0.656-0.885
			c0.195-0.291,0.371-0.596,0.541-0.904c0.192-0.346,0.377-0.691,0.534-1.055c0.126-0.292,0.223-0.598,0.326-0.9
			c0.139-0.404,0.28-0.803,0.376-1.223c0.061-0.272,0.083-0.554,0.126-0.832c0.072-0.466,0.158-0.929,0.175-1.408v0
			c0.027-0.748,0.004-1.506-0.112-2.273c-1-6.66-7.227-11.272-13.873-10.243l-90.056,13.57l6.982-49.695
			c0.338-2.399,0.431-4.791,0.341-7.162c15.976-7.061,33.467-8.429,50.806-3.772l129.009,34.606l-94.475,94.417
			c-31.385,31.382-75.604,27.406-103.04,5.482L649.367,226.419z M674.973,279.875c-7.689,3.513-15.326,7.289-22.877,11.398
			c-4.128,2.248-8.361,4.207-12.665,5.885l4.169-29.681C653.471,273.442,664.071,277.569,674.973,279.875z M609.716,109.122
			c0.581-4.126,2.73-7.78,6.055-10.285c3.33-2.506,7.432-3.573,11.562-2.987c4.126,0.581,7.775,2.73,10.285,6.06
			c2.506,3.325,3.568,7.427,2.987,11.553l-26.721,190.222c-2.605,0.337-5.218,0.576-7.834,0.719
			c-2.51,0.138-5.024,0.174-7.535,0.136c-0.101-0.001-0.202,0.007-0.304,0.005c-5.23-0.096-10.456-0.573-15.639-1.419
			c-0.002,0-0.004-0.001-0.006-0.001l0,0c-0.034-0.006-0.07-0.008-0.105-0.013L609.716,109.122z M1047.066,937.864
			c-48.435,72.034-119.349,131.013-202.914,154.501c-25.218,7.088-51.575,10.623-77.882,10.529
			c-60.865-0.216-121.453-19.854-166.997-59.843c-53.62,50.068-132.13,69.074-204.624,57.824
			c-72.494-11.25-138.825-50.47-190.743-102.3C98.421,893.267,54.546,732.816,84.187,587.617
			c21.518-105.407,76.174-210.69,168.923-269.944c63.228-40.394,143.97-56.013,215.363-32.934
			c46.306,14.97,89.52,45.584,138.138,43.433c38.179-1.689,72.072-23.463,107.822-36.97c60.703-22.934,130.18-21.656,189.998,3.496
			c59.101,24.85,107.196,71.389,142.913,124.633C1149.485,571.592,1149.37,785.713,1047.066,937.864z"/>
		<path fill="#0C2A44" d="M609.716,109.122l-27.255,193.99c0.035,0.006,0.07,0.008,0.105,0.013L609.716,109.122z"/>
		<path fill="#0C2A44" d="M606.05,304.404c-2.51,0.137-5.024,0.175-7.535,0.136C601.027,304.578,603.54,304.541,606.05,304.404z"/>
		<path fill="#0C2A44" d="M598.211,304.545c-5.23-0.096-10.456-0.573-15.639-1.419C587.755,303.972,592.981,304.449,598.211,304.545
			z"/>
	</g>
</g>
</svg>
